<svg width="410" height="25" viewBox="0 0 410 25" fill="none" xmlns="http://www.w3.org/2000/svg">
<g clip-path="url(#clip0_30_600)">
<path d="M9.65915 0.506836C11.4768 0.506836 15.8123 0.68562 18.7771 3.54617C20.4607 5.15523 21.742 7.80719 21.742 11.3382C21.742 16.9252 19.3433 19.6665 18.2408 20.7393C15.559 23.3912 11.9535 24.3447 6.94759 24.3447H0.511353L3.44639 0.506836H9.67405H9.65915ZM5.6514 20.3519H7.23066C10.3743 20.3519 12.9816 19.741 14.7694 17.7744C16.2742 16.1356 16.9446 13.6624 16.9446 11.4425C16.9446 10.1165 16.6615 7.97108 14.8737 6.36202C12.9369 4.64867 10.2551 4.49968 9.0036 4.49968H7.57333L5.6365 20.337L5.6514 20.3519Z" fill="#B71B26"/>
<path d="M40.2962 16.0239C39.5066 17.633 38.2551 18.9142 37.0036 19.6294C35.4691 20.4935 33.7557 20.6723 32.3552 20.6723C30.2843 20.6723 28.2432 20.2849 26.6043 18.5269C25.7402 17.633 24.742 16.0537 24.742 13.5209C24.742 10.8392 25.7104 8.15739 27.4238 6.47384C29.3904 4.50721 31.7146 4.17944 33.6067 4.17944C35.4989 4.17944 37.391 4.53701 38.8958 5.96729C40.5793 7.57634 40.8922 9.69196 40.8922 11.5841C40.8922 12.2247 40.8922 12.6866 40.8177 13.1634H29.2265C29.0477 14.5936 29.4798 15.6365 30.1204 16.2772C30.9101 17.0966 31.8785 17.2456 32.6532 17.2456C33.1896 17.2456 34.1878 17.2158 35.0072 16.739C35.6478 16.3517 36.1842 15.6961 36.512 15.13L40.2664 16.0239H40.2962ZM37.0781 10.3773C37.0483 9.48338 36.6461 8.61925 36.1097 8.1276C35.4989 7.56145 34.5751 7.26347 33.6812 7.26347C32.5042 7.26347 31.6401 7.72533 31.0293 8.26168C30.4929 8.76824 29.9863 9.51317 29.748 10.3773H37.0781Z" fill="#B71B26"/>
<path d="M54.5596 8.42556C54.2318 8.09779 53.919 7.85941 53.4571 7.63593C52.9952 7.42735 52.593 7.32306 51.997 7.32306C51.8183 7.32306 50.9541 7.35286 50.537 7.82962C50.388 8.0084 50.2092 8.29148 50.2092 8.75334C50.2092 9.08111 50.2837 9.31949 50.537 9.54297C50.7902 9.75155 51.1031 9.90053 51.7885 10.1091L53.1144 10.5412C53.9786 10.8243 54.9321 11.3606 55.5131 11.9417C56.4071 12.8654 56.5858 14.0573 56.5858 14.8767C56.5858 16.6645 55.8707 17.9458 54.9768 18.8397C53.3677 20.4488 51.3266 20.6574 49.8963 20.6574C48.3171 20.6574 47.1401 20.3296 46.2461 19.9125C45.4565 19.5251 44.5328 18.7653 43.8922 18.0948L46.4994 15.4428C46.857 15.9494 47.3635 16.4113 47.9297 16.739C48.466 17.0221 49.1067 17.2456 49.7175 17.2456C50.2837 17.2456 50.9988 17.0966 51.4011 16.7837C51.7587 16.5007 52.0119 15.9941 52.0119 15.4279C52.0119 15.1449 51.9374 14.7873 51.6246 14.4595C51.2968 14.1765 50.7604 13.953 50.09 13.7146L49.0173 13.2825C48.3767 13.0293 47.6168 12.6717 46.9762 12.031C46.261 11.3159 45.9333 10.571 45.9333 9.37908C45.9333 7.84452 46.5739 6.54833 47.4678 5.6991C48.3618 4.83498 49.792 4.19434 51.8629 4.19434C52.8612 4.19434 54.0084 4.34332 54.9023 4.70089C55.5876 4.95417 56.3326 5.41603 56.8391 5.7736L54.5894 8.45536L54.5596 8.42556Z" fill="#B71B26"/>
<path d="M66.0966 9.25986L64.2044 24.7396H59.8391L61.7312 9.25986H66.0966ZM62.9529 1.00598C63.6681 0.261047 64.4577 0.112061 65.0239 0.112061C65.7092 0.112061 66.2753 0.365338 66.6627 0.752704C67.0948 1.18477 67.348 1.79561 67.348 2.43626C67.348 2.97261 67.1693 3.76224 66.4839 4.43268C65.8433 5.07332 65.0834 5.3266 64.413 5.3266C63.7426 5.3266 63.1913 5.07332 62.7741 4.68596C62.3421 4.2539 62.0888 3.76224 62.0888 3.0471C62.0888 2.33197 62.3421 1.61683 62.9529 1.00598Z" fill="#B71B26"/>
<path d="M84.4869 0.827112H88.8522L87.0346 15.5917C86.826 17.4094 86.528 20.3891 84.6806 22.2812C83.5334 23.4582 81.4326 24.5309 78.0357 24.5309C76.1734 24.5309 73.8939 24.2032 72.2402 22.46C71.2419 21.4171 70.5268 19.808 70.348 18.1394H74.9219C74.9964 18.78 75.3093 19.5697 75.8158 20.0315C76.2032 20.4189 76.963 20.8212 78.1698 20.8212C79.5256 20.8212 80.5238 20.3891 81.1794 19.7782C82.1478 18.8545 82.4309 17.4541 82.5799 16.4111L82.8629 14.2359C82.6841 14.4892 81.9988 15.4129 80.9261 16.0536C80.0322 16.5899 79.0638 16.7985 78.0357 16.7985C76.1436 16.7985 74.3856 16.3366 72.9553 14.9064C71.8081 13.7592 70.9142 11.9415 70.9142 9.36406C70.9142 6.42902 72.0614 4.00053 73.7002 2.46597C74.7729 1.42306 76.5608 0.320557 79.2127 0.320557C80.6132 0.320557 81.6859 0.603632 82.4607 1.06549C82.997 1.39326 83.7121 1.92961 84.2485 2.82354L84.5018 0.827112H84.4869ZM76.9034 5.29672C75.8605 6.22044 75.3987 7.69541 75.3987 9.02139C75.3987 10.4517 76.0393 11.3754 76.5459 11.8819C77.3653 12.7014 78.3635 12.9546 79.2574 12.9546C81.0155 12.9546 82.0435 12.314 82.5799 11.8074C83.5036 10.9135 84.0846 9.45345 84.0846 8.05298C84.0846 6.6525 83.444 5.69898 82.9076 5.19243C82.267 4.62628 81.2688 4.19422 80.0173 4.19422C78.4827 4.19422 77.4845 4.76037 76.9034 5.29672Z" fill="#B71B26"/>
<path d="M93.7593 4.93917H98.1246L97.8713 6.9356C98.3034 6.25026 98.9142 5.65431 99.7634 5.14775C100.657 4.6412 101.551 4.43262 102.773 4.43262C104.844 4.43262 106.14 5.07326 106.915 5.86289C107.913 6.9058 108.137 8.18709 108.137 9.25979C108.137 10.1239 107.988 10.8391 107.853 11.9118L106.811 20.4189H102.445L103.339 13.2377C103.369 12.91 103.548 11.3456 103.548 10.7646C103.548 9.69185 103.16 9.08101 102.833 8.79793C102.505 8.47016 101.909 8.15729 100.94 8.15729C99.6889 8.15729 98.944 8.66385 98.5119 9.08101C97.6925 9.94513 97.335 11.4052 97.186 12.5077L96.2176 20.404H91.8522L93.7444 4.92427L93.7593 4.93917Z" fill="#B71B26"/>
<path d="M117.573 9.7218H127.659L128.806 0.499512H133.455L130.52 24.3523H125.871L127.153 13.7295H117.066L115.785 24.3523H111.136L114.072 0.499512H118.72L117.573 9.7218Z" fill="#B71B26"/>
<path d="M152.352 6.39177C153.35 7.43468 154.348 9.10333 154.348 11.5467C154.348 13.5133 153.737 15.9865 151.592 18.0574C149.551 19.9943 147.226 20.6647 144.47 20.6647C142.25 20.6647 140.179 20.2029 138.496 18.5193C137.349 17.4168 136.455 15.6886 136.455 13.2601C136.455 10.8316 137.557 8.3286 139.136 6.79404C140.388 5.57235 142.608 4.18677 146.213 4.18677C149.253 4.18677 151.145 5.22968 152.322 6.40667L152.352 6.39177ZM148.314 15.4353C149.208 14.5414 149.774 13.1856 149.774 11.9639C149.774 10.9955 149.387 9.81847 148.627 9.10333C147.912 8.41799 146.839 8.03063 145.796 8.03063C144.574 8.03063 143.368 8.49249 142.504 9.28212C141.431 10.2803 140.969 11.7553 140.969 12.9621C140.969 13.8858 141.356 15.0032 142.042 15.6737C142.757 16.3888 143.904 16.7762 144.902 16.7762C146.079 16.7762 147.375 16.3441 148.299 15.4204L148.314 15.4353Z" fill="#B71B26"/>
<path d="M162.905 4.41772L161.982 12.1501C161.833 13.4016 161.803 13.789 161.803 14.0125C161.803 15.0107 162.13 15.5917 162.443 15.9046C162.905 16.4112 163.725 16.6942 164.619 16.6942C165.721 16.6942 166.511 16.3069 167.017 15.8301C167.837 15.0405 168.015 13.9678 168.194 12.5822L169.192 4.43262H173.558L172.515 12.9845C172.157 15.845 171.472 18.0649 169.148 19.3909C167.747 20.1805 166.004 20.4338 164.529 20.4338C162.592 20.4338 160.67 20.0018 159.419 19.1078C158.6 18.497 157.348 17.2157 157.348 14.8468C157.348 14.236 157.423 13.5208 157.557 12.4183L158.525 4.44752H162.89L162.905 4.41772Z" fill="#B71B26"/>
<path d="M187.225 8.42556C186.898 8.09779 186.585 7.85941 186.123 7.63593C185.661 7.42735 185.259 7.32306 184.663 7.32306C184.484 7.32306 183.62 7.35286 183.203 7.82962C183.054 8.0084 182.875 8.29148 182.875 8.75334C182.875 9.08111 182.949 9.31949 183.203 9.54297C183.456 9.75155 183.769 9.90053 184.454 10.1091L185.78 10.5412C186.644 10.8243 187.598 11.3606 188.179 11.9417C189.073 12.8654 189.252 14.0573 189.252 14.8767C189.252 16.6645 188.536 17.9458 187.642 18.8397C186.033 20.4488 183.992 20.6574 182.562 20.6574C180.983 20.6574 179.806 20.3296 178.912 19.9125C178.122 19.5251 177.199 18.7653 176.558 18.0948L179.165 15.4428C179.523 15.9494 180.029 16.4113 180.595 16.739C181.132 17.0221 181.772 17.2456 182.383 17.2456C182.949 17.2456 183.665 17.0966 184.067 16.7837C184.424 16.5007 184.678 15.9941 184.678 15.4279C184.678 15.1449 184.603 14.7873 184.29 14.4595C183.963 14.1765 183.426 13.953 182.756 13.7146L181.683 13.2825C181.042 13.0293 180.283 12.6717 179.642 12.031C178.927 11.3159 178.599 10.571 178.599 9.37908C178.599 7.84452 179.24 6.54833 180.134 5.6991C181.027 4.83498 182.458 4.19434 184.529 4.19434C185.527 4.19434 186.674 4.34332 187.568 4.70089C188.253 4.95417 188.998 5.41603 189.505 5.7736L187.255 8.45536L187.225 8.42556Z" fill="#B71B26"/>
<path d="M208.059 16.0239C207.269 17.633 206.018 18.9142 204.766 19.6294C203.232 20.4935 201.518 20.6723 200.118 20.6723C198.047 20.6723 196.006 20.2849 194.367 18.5269C193.503 17.633 192.505 16.0537 192.505 13.5209C192.505 10.8392 193.473 8.15739 195.187 6.47384C197.153 4.50721 199.477 4.17944 201.369 4.17944C203.262 4.17944 205.154 4.53701 206.659 5.96729C208.342 7.57634 208.655 9.69196 208.655 11.5841C208.655 12.2247 208.655 12.6866 208.58 13.1634H196.989C196.81 14.5936 197.243 15.6365 197.883 16.2772C198.673 17.0966 199.641 17.2456 200.416 17.2456C200.952 17.2456 201.951 17.2158 202.77 16.739C203.411 16.3517 203.947 15.6961 204.275 15.13L208.029 16.0239H208.059ZM204.841 10.3773C204.811 9.48338 204.409 8.61925 203.872 8.1276C203.262 7.56145 202.338 7.26347 201.444 7.26347C200.267 7.26347 199.403 7.72533 198.792 8.26168C198.256 8.76824 197.749 9.51317 197.511 10.3773H204.841Z" fill="#B71B26"/>
<path d="M221.473 0.499512C223.291 0.499512 225.66 0.752789 227.403 2.57043C228.222 3.43455 229.086 4.86483 229.086 7.14433C229.086 9.42383 228.267 11.1819 227.12 12.2993C226.047 13.3422 224.289 14.1169 222.725 14.3702L228.803 24.3523H223.231L218.046 14.7725H217.48L216.303 24.3523H211.655L214.59 0.499512H221.488H221.473ZM217.868 11.4798H219.507C220.758 11.4798 222.337 11.1223 223.231 10.2284C223.663 9.79629 224.274 8.94707 224.274 7.51679C224.274 6.83146 224.125 5.90774 223.306 5.1926C222.74 4.68604 221.771 4.29868 220.237 4.29868H218.777L217.883 11.4947L217.868 11.4798Z" fill="#B71B26"/>
<path d="M247.641 16.0239C246.851 17.633 245.6 18.9142 244.348 19.6294C242.813 20.4935 241.1 20.6723 239.7 20.6723C237.629 20.6723 235.588 20.2849 233.949 18.5269C233.085 17.633 232.086 16.0537 232.086 13.5209C232.086 10.8392 233.055 8.15739 234.768 6.47384C236.735 4.50721 239.059 4.17944 240.951 4.17944C242.843 4.17944 244.735 4.53701 246.24 5.96729C247.924 7.57634 248.237 9.69196 248.237 11.5841C248.237 12.2247 248.237 12.6866 248.162 13.1634H236.571C236.392 14.5936 236.824 15.6365 237.465 16.2772C238.254 17.0966 239.223 17.2456 239.998 17.2456C240.534 17.2456 241.532 17.2158 242.352 16.739C242.992 16.3517 243.529 15.6961 243.856 15.13L247.611 16.0239H247.641ZM244.423 10.3773C244.393 9.48338 243.99 8.61925 243.454 8.1276C242.843 7.56145 241.92 7.26347 241.026 7.26347C239.849 7.26347 238.985 7.72533 238.374 8.26168C237.837 8.76824 237.331 9.51317 237.092 10.3773H244.423Z" fill="#B71B26"/>
<path d="M253.144 4.93917H257.509L257.256 6.9356C257.688 6.25026 258.299 5.65431 259.148 5.14775C260.042 4.6412 260.936 4.43262 262.157 4.43262C264.228 4.43262 265.524 5.07326 266.299 5.86289C267.297 6.9058 267.521 8.18709 267.521 9.25979C267.521 10.1239 267.372 10.8391 267.238 11.9118L266.195 20.4189H261.83L262.723 13.2377C262.753 12.91 262.932 11.3456 262.932 10.7646C262.932 9.69185 262.545 9.08101 262.217 8.79793C261.889 8.47016 261.293 8.15729 260.325 8.15729C259.073 8.15729 258.328 8.66385 257.896 9.08101C257.077 9.94513 256.719 11.4052 256.57 12.5077L255.602 20.404H251.237L253.129 4.92427L253.144 4.93917Z" fill="#B71B26"/>
<path d="M286.418 6.39177C287.416 7.43468 288.414 9.10333 288.414 11.5467C288.414 13.5133 287.803 15.9865 285.658 18.0574C283.617 19.9943 281.293 20.6647 278.536 20.6647C276.316 20.6647 274.246 20.2029 272.562 18.5193C271.415 17.4168 270.521 15.6886 270.521 13.2601C270.521 10.8316 271.623 8.3286 273.203 6.79404C274.454 5.57235 276.674 4.18677 280.28 4.18677C283.319 4.18677 285.211 5.22968 286.388 6.40667L286.418 6.39177ZM282.38 15.4353C283.274 14.5414 283.84 13.1856 283.84 11.9639C283.84 10.9955 283.453 9.81847 282.693 9.10333C281.978 8.41799 280.905 8.03063 279.862 8.03063C278.641 8.03063 277.434 8.49249 276.57 9.28212C275.497 10.2803 275.035 11.7553 275.035 12.9621C275.035 13.8858 275.423 15.0032 276.108 15.6737C276.823 16.3888 277.97 16.7762 278.968 16.7762C280.145 16.7762 281.442 16.3441 282.365 15.4204L282.38 15.4353Z" fill="#B71B26"/>
<path d="M296.122 4.68604L299.132 13.4167L304.287 4.68604H309.293L299.489 20.1658H297.418L291.414 4.68604H296.137H296.122Z" fill="#B71B26"/>
<path d="M325.94 4.67842H330.305L328.413 20.1582H324.048L324.301 18.1617C323.511 19.2046 322.617 19.741 322.334 19.9198C321.411 20.4561 320.517 20.6647 319.444 20.6647C317.582 20.6647 315.838 20.1582 314.364 18.6981C312.859 17.1933 312.293 15.3012 312.293 13.2303C312.293 10.4442 313.216 8.14982 314.691 6.61525C315.943 5.33397 317.939 4.18677 320.8 4.18677C321.902 4.18677 322.871 4.39535 323.869 4.9317C324.733 5.39356 325.269 5.97461 325.687 6.68975L325.94 4.69332V4.67842ZM318.356 9.14803C317.358 10.0718 316.822 11.4424 316.822 12.7237C316.822 14.0795 317.328 15.1522 317.999 15.7928C318.639 16.4037 319.578 16.7911 320.859 16.7911C321.723 16.7911 322.9 16.6123 323.928 15.6886C324.971 14.7648 325.463 13.2899 325.463 11.9639C325.463 10.8614 325.031 9.89297 324.39 9.20763C323.884 8.67127 322.96 8.03063 321.381 8.03063C320.278 8.03063 319.235 8.3584 318.341 9.13313L318.356 9.14803Z" fill="#B71B26"/>
<path d="M339.384 11.0476L337.954 22.8176H333.588L335.019 11.0476H333.305L333.767 7.32297H335.48L336.121 2.03394H340.486L339.846 7.32297H342.855L342.393 11.0476H339.384Z" fill="#B71B26"/>
<path d="M352.113 9.25986L350.221 24.7396H345.855L347.747 9.25986H352.113ZM348.969 1.00598C349.684 0.261047 350.474 0.112061 351.04 0.112061C351.725 0.112061 352.291 0.365338 352.679 0.752704C353.111 1.18477 353.364 1.79561 353.364 2.43626C353.364 2.97261 353.185 3.76224 352.5 4.43268C351.859 5.07332 351.1 5.3266 350.429 5.3266C349.759 5.3266 349.207 5.07332 348.79 4.68596C348.358 4.2539 348.105 3.76224 348.105 3.0471C348.105 2.33197 348.358 1.61683 348.969 1.00598Z" fill="#B71B26"/>
<path d="M372.261 6.39177C373.259 7.43468 374.257 9.10333 374.257 11.5467C374.257 13.5133 373.647 15.9865 371.501 18.0574C369.46 19.9943 367.136 20.6647 364.38 20.6647C362.16 20.6647 360.089 20.2029 358.405 18.5193C357.258 17.4168 356.364 15.6886 356.364 13.2601C356.364 10.8316 357.467 8.3286 359.046 6.79404C360.297 5.57235 362.517 4.18677 366.123 4.18677C369.162 4.18677 371.054 5.22968 372.231 6.40667L372.261 6.39177ZM368.223 15.4353C369.117 14.5414 369.684 13.1856 369.684 11.9639C369.684 10.9955 369.296 9.81847 368.536 9.10333C367.821 8.41799 366.749 8.03063 365.706 8.03063C364.484 8.03063 363.277 8.49249 362.413 9.28212C361.34 10.2803 360.878 11.7553 360.878 12.9621C360.878 13.8858 361.266 15.0032 361.951 15.6737C362.666 16.3888 363.813 16.7762 364.812 16.7762C365.989 16.7762 367.285 16.3441 368.209 15.4204L368.223 15.4353Z" fill="#B71B26"/>
<path d="M379.164 4.93917H383.53L383.277 6.9356C383.709 6.25026 384.319 5.65431 385.169 5.14775C386.063 4.6412 386.956 4.43262 388.178 4.43262C390.249 4.43262 391.545 5.07326 392.32 5.86289C393.318 6.9058 393.542 8.18709 393.542 9.25979C393.542 10.1239 393.393 10.8391 393.259 11.9118L392.216 20.4189H387.85L388.744 13.2377C388.774 12.91 388.953 11.3456 388.953 10.7646C388.953 9.69185 388.566 9.08101 388.238 8.79793C387.91 8.47016 387.314 8.15729 386.346 8.15729C385.094 8.15729 384.349 8.66385 383.917 9.08101C383.098 9.94513 382.74 11.4052 382.591 12.5077L381.623 20.404H377.257L379.15 4.92427L379.164 4.93917Z" fill="#B71B26"/>
<path d="M407.209 8.42556C406.881 8.09779 406.569 7.85941 406.107 7.63593C405.645 7.42735 405.243 7.32306 404.647 7.32306C404.468 7.32306 403.604 7.35286 403.187 7.82962C403.038 8.0084 402.859 8.29148 402.859 8.75334C402.859 9.08111 402.933 9.31949 403.187 9.54297C403.44 9.75155 403.753 9.90053 404.438 10.1091L405.764 10.5412C406.628 10.8243 407.582 11.3606 408.163 11.9417C409.057 12.8654 409.235 14.0573 409.235 14.8767C409.235 16.6645 408.52 17.9458 407.626 18.8397C406.017 20.4488 403.976 20.6574 402.546 20.6574C400.967 20.6574 399.79 20.3296 398.896 19.9125C398.106 19.5251 397.182 18.7653 396.542 18.0948L399.149 15.4428C399.507 15.9494 400.013 16.4113 400.579 16.739C401.116 17.0221 401.756 17.2456 402.367 17.2456C402.933 17.2456 403.648 17.0966 404.051 16.7837C404.408 16.5007 404.662 15.9941 404.662 15.4279C404.662 15.1449 404.587 14.7873 404.274 14.4595C403.946 14.1765 403.41 13.953 402.74 13.7146L401.667 13.2825C401.026 13.0293 400.266 12.6717 399.626 12.031C398.911 11.3159 398.583 10.571 398.583 9.37908C398.583 7.84452 399.224 6.54833 400.117 5.6991C401.011 4.83498 402.442 4.19434 404.513 4.19434C405.511 4.19434 406.658 4.34332 407.552 4.70089C408.237 4.95417 408.982 5.41603 409.489 5.7736L407.239 8.45536L407.209 8.42556Z" fill="#B71B26"/>
</g>
<defs>
<clipPath id="clip0_30_600">
<rect width="408.977" height="24.6275" fill="white" transform="translate(0.511353 0.112061)"/>
</clipPath>
</defs>
</svg>
