<svg width="22" height="25" viewBox="0 0 22 25" fill="none" xmlns="http://www.w3.org/2000/svg">
<path d="M9.65915 0.506836C11.4768 0.506836 15.8123 0.68562 18.7771 3.54617C20.4607 5.15523 21.742 7.80719 21.742 11.3382C21.742 16.9252 19.3433 19.6665 18.2408 20.7393C15.559 23.3912 11.9535 24.3447 6.94759 24.3447H0.511353L3.44639 0.506836H9.67405H9.65915ZM5.6514 20.3519H7.23066C10.3743 20.3519 12.9816 19.741 14.7694 17.7744C16.2742 16.1356 16.9446 13.6624 16.9446 11.4425C16.9446 10.1165 16.6615 7.97108 14.8737 6.36202C12.9369 4.64867 10.2551 4.49968 9.0036 4.49968H7.57333L5.6365 20.337L5.6514 20.3519Z" fill="#B71B26"/>
</svg>
